<?xml version="1.0" encoding="utf-8"?>
<!-- Generator: Adobe Illustrator 25.4.1, SVG Export Plug-In . SVG Version: 6.00 Build 0)  -->
<svg version="1.1" id="Layer_1" xmlns="http://www.w3.org/2000/svg" xmlns:xlink="http://www.w3.org/1999/xlink" x="0px" y="0px"
	 viewBox="0 0 225 256" style="enable-background:new 0 0 225 256;" xml:space="preserve">
<g>
	<g>
		<path d="M136.5,256c-1.2,0-2.3,0-3.5,0c-6.9-3-5.4-9.2-5.5-15c-1.2,0-2.2,0-3.1,0c-28.2,0-56.5,0-84.7,0c-7,0-9.6-2.6-9.6-9.6
			c0-56.1,0-112.1,0-168.2c0-1,0-2.1,0-3.1C29.2,60,28.8,60,28.4,60C15.7,59.2,4.9,50.7,1.3,38.6C-2.4,26.4,2,13.5,12.3,5.8
			c4.2-3.2,9.1-4.7,14.2-5.8c57.3,0,114.7,0,172,0c0.4,0.1,0.8,0.4,1.2,0.4C214.6,3,225,15.1,225,30.3c0.1,67.4,0,134.9,0,202.3
			c0,5.4-3,8.4-8.3,8.4c-5.4,0-10.8,0-16.2,0c-4.2,0-8.4,0-12.9,0c-0.2,5.8,1.4,12-5.5,15c-1.2,0-2.3,0-3.5,0c-1.8-1-3.6-2-5.4-3.1
			c-4.6-3-9.2-6-13.7-9.1c-1.5-1-2.4-1-3.9,0C149.3,247.9,142.9,251.9,136.5,256z M45.1,225.8c27.5,0,54.9,0,82.4,0
			c0-9.5,0.1-18.8-0.1-28.2c0-1.6-0.5-3.4-1.4-4.8c-4.9-8-6.9-16.5-5.6-25.8c2.9-21.1,24-35.9,44.8-31.2c26,5.8,37.8,34.5,23.6,57.1
			c-0.8,1.3-1.3,3.1-1.3,4.6c-0.1,8.6-0.1,17.2-0.1,25.7c0,0.9,0,1.7,0,2.6c7.7,0,15,0,22.5,0c0-0.9,0-1.6,0-2.3
			c0-64.1,0-128.2,0-192.2c0-1.6-0.1-3.2-0.5-4.7c-1.5-6.6-7.2-11.2-14-11.5c-6.3-0.3-12.5,3.8-14.5,9.8c-2.3,6.5-0.2,13.4,5.3,17.3
			c3.2,2.3,6.8,2.9,10.7,2.9c4.4,0,7.5,3.2,7.6,7.3c0.1,4.3-3.1,7.4-7.6,7.6c-0.8,0-1.7,0-2.5,0c-48.8,0-97.5,0-146.3,0
			c-1,0-2,0-3.1,0C45.1,115.4,45.1,170.5,45.1,225.8z M169,15c-1.1,0-1.9,0-2.7,0c-44.8,0-89.7,0-134.5,0c-1.1,0-2.2,0-3.2,0.1
			c-9.6,1.1-15.6,10.4-12.6,19.5C18,41.2,23.6,45,31.2,45c45.2,0,90.3,0,135.5,0c0.6,0,1.3-0.1,2.2-0.1
			C163.7,34.9,163.8,25.1,169,15z M180,172.9c0.4-12.1-9.6-22.4-22-22.8c-12.1-0.4-22.4,9.5-22.9,22c-0.5,12.1,9.7,22.7,22.2,23
			C169.3,195.3,179.6,185.3,180,172.9z M172.3,234.4c0-9.4,0-18.3,0-27.4c-10,4.1-19.9,4-29.6,0.1c0,9.2,0,18.1,0,27.3
			c3.4-2.3,6.5-4.3,9.6-6.4c3.5-2.5,6.9-2.4,10.4,0C165.8,230.1,168.9,232.1,172.3,234.4z"/>
		<path d="M127.5,75c19.7,0,39.5,0,59.2,0c5.9,0,9.6,4.8,7.8,9.9c-1.1,3-3.4,4.7-6.5,5c-0.8,0.1-1.7,0-2.5,0c-38.7,0-77.3,0-116,0
			c-6,0-9.5-2.8-9.5-7.5c0-4.7,3.5-7.5,9.5-7.5C88.8,75,108.2,75,127.5,75z"/>
		<path d="M127.5,120c-19.7,0-39.5,0-59.2,0c-5.9,0-9.6-4.8-7.8-9.9c1.1-3,3.4-4.7,6.5-5c0.8-0.1,1.7,0,2.5,0c38.7,0,77.3,0,116,0
			c6,0,9.5,2.8,9.5,7.5c0,4.7-3.5,7.5-9.5,7.5C166.2,120,146.8,120,127.5,120z"/>
		<path d="M82.2,150c-4.7,0-9.3,0-14,0c-4.9,0-8.2-3.1-8.2-7.5s3.4-7.5,8.2-7.5c9.5,0,19,0,28.5,0c4.9,0,8.2,3.1,8.2,7.5
			s-3.4,7.5-8.2,7.5C91.9,150,87.1,150,82.2,150z"/>
		<path d="M82.3,180c-4.7,0-9.3,0-14,0c-4.9,0-8.3-3.1-8.3-7.4c0-4.4,3.3-7.5,8.2-7.5c9.5,0,19,0,28.5,0c4.9,0,8.3,3.1,8.3,7.4
			c0,4.4-3.3,7.5-8.2,7.5C92,180,87.1,180,82.3,180z"/>
	</g>
</g>
</svg>
