<?xml version="1.0" encoding="UTF-8"?>
<svg enable-background="new 0 0 455 455" version="1.1" viewBox="0 0 455 455" xml:space="preserve" xmlns="http://www.w3.org/2000/svg">
<g clip-rule="evenodd" fill-rule="evenodd">
	<path d="m186.2 153.55c-3.542 14.264-25.092 96.545-25.092 96.545h52.75s-23.461-82.281-26.966-96.545h-0.692z"/>
	<path d="m0 0v455h455v-455h-455zm240.02 351.6l-18.428-61.115h-68.192l-17.074 61.115h-55.874l72.949-238.31h70.621l73.885 238.31h-57.887zm132.75 0h-53.824v-172.83h53.824v172.83zm-27.241-194.1c-16.935 0-28.317-12.078-27.936-26.86-0.381-15.583 11.002-27.244 28.353-27.244 17.352 0 28.18 11.66 28.595 27.244 0 14.782-11.243 26.86-29.012 26.86z"/>
</g>
</svg>
