<?xml version="1.0" encoding="UTF-8"?>
<!DOCTYPE svg  PUBLIC '-//W3C//DTD SVG 1.1//EN'  'http://www.w3.org/Graphics/SVG/1.1/DTD/svg11.dtd'>
<svg width="430.11px" height="430.11px" enable-background="new 0 0 430.114 430.114" version="1.1" viewBox="0 0 430.114 430.114" xml:space="preserve" xmlns="http://www.w3.org/2000/svg">
	<path d="m356.21 107.05c-1.531-5.738-4.64-11.852-6.94-17.205-27.522-66.142-87.657-89.846-136.21-89.846-65.001 0-136.59 43.586-146.15 133.43v18.355c0 0.766 0.264 7.647 0.639 11.089 5.358 42.816 39.143 88.32 64.375 131.14 27.146 45.873 55.314 90.999 83.221 136.11 17.208-29.436 34.354-59.259 51.17-87.933 4.583-8.415 9.903-16.825 14.491-24.857 3.058-5.348 8.9-10.696 11.569-15.672 27.145-49.699 70.838-99.782 70.838-149.1v-20.262c1e-3 -5.347-6.627-24.081-7-25.234zm-141.96 92.142c-19.107 0-40.021-9.554-50.344-35.939-1.538-4.2-1.414-12.617-1.414-13.388v-11.852c0-33.636 28.56-48.932 53.406-48.932 30.588 0 54.245 24.472 54.245 55.06 0 30.587-25.305 55.051-55.893 55.051z"/>
</svg>
