<?xml version="1.0" encoding="UTF-8"?>
<!DOCTYPE svg  PUBLIC '-//W3C//DTD SVG 1.1//EN'  'http://www.w3.org/Graphics/SVG/1.1/DTD/svg11.dtd'>
<svg width="396.49px" height="396.49px" enable-background="new 0 0 396.494 396.494" version="1.1" viewBox="0 0 396.494 396.494" xml:space="preserve" xmlns="http://www.w3.org/2000/svg">
	<path d="m304.42 330.9h-43.219c-1.56 0-2.834-1.273-2.834-2.834v-10.52c0-1.559-1.275-2.834-2.834-2.834h-60.475c-1.56 0-2.835 1.275-2.835 2.834v10.52c0 1.561-1.275 2.834-2.835 2.834h-32.491c-1.56 0-2.835 1.275-2.835 2.834v12.17c0 1.559 1.275 2.834 2.835 2.834h147.52c1.559 0 2.834-1.275 2.834-2.834v-12.17c2e-3 -1.556-1.273-2.834-2.832-2.834z"/>
		<path d="m377.03 46.368h-308.4c-10.73 0-19.459 8.73-19.459 19.462v50.761c0 6.711-0.498 7.66 4.004 7.66h7.72c3.778 0 3.003-0.949 3.003-7.785v-50.636c0-2.565 2.168-4.733 4.732-4.733h308.4c2.563 0 4.731 2.168 4.731 4.733v190h-219.87s-7.749-0.014-7.749 10.006v23.766c0 10.006 8 10.006 8 10.006h214.89c10.729 0 19.461-8.729 19.461-19.459v-214.32c0-10.731-8.73-19.462-19.461-19.462zm-154.2 236.44c-4.845 0-8.771-3.926-8.771-8.768s3.926-8.77 8.771-8.77c4.84 0 8.767 3.928 8.767 8.77s-3.927 8.768-8.767 8.768z"/>
		<path d="m124.12 141.63h-111.57c-6.927 0-12.559 5.633-12.559 12.56v183.37c0 6.926 5.632 12.561 12.559 12.561h111.57c6.923 0 12.559-5.635 12.559-12.561v-183.37c0-6.927-5.636-12.56-12.559-12.56zm-69.545 12.81h27.523c1.313 0 2.38 1.064 2.38 2.381 0 1.314-1.066 2.379-2.38 2.379h-27.523c-1.315 0-2.379-1.065-2.379-2.379 0-1.317 1.064-2.381 2.379-2.381zm13.595 186.86c-3.59 0-6.5-2.91-6.5-6.5s2.91-6.5 6.5-6.5 6.5 2.91 6.5 6.5-2.91 6.5-6.5 6.5zm57.718-19.104c0 1.676-1.342 3.047-2.98 3.047h-109.14c-1.639 0-2.98-1.371-2.98-3.047v-152.38c0-1.676 1.342-3.046 2.98-3.046h109.14c1.639 0 2.98 1.371 2.98 3.046v152.38z"/>
</svg>
