<?xml version="1.0" encoding="utf-8"?>
<!-- Generator: Adobe Illustrator 25.4.1, SVG Export Plug-In . SVG Version: 6.00 Build 0)  -->
<svg version="1.1" id="Layer_1" xmlns="http://www.w3.org/2000/svg" xmlns:xlink="http://www.w3.org/1999/xlink" x="0px" y="0px"
	 viewBox="0 0 50 61.8" style="enable-background:new 0 0 50 61.8;" xml:space="preserve">
<style type="text/css">
	.st0{fill:#28B34B;}
	.st1{fill:#A3D17A;}
	.st2{fill:#295428;}
	.st3{fill:#FFFFFF;}
</style>
<g>
	<g>
		<path class="st0" d="M30.5,16.8V0.8c0-0.3,0-0.5,0.1-0.7L30.5,0H9.3c-1.6,0-3,1.3-3,3v55.8c0,1.6,1.3,3,3,3H47c1.6,0,3-1.3,3-3
			V19.7H33.5C31.9,19.7,30.5,18.4,30.5,16.8z"/>
		<path class="st1" d="M30.6,0.1c-0.1,0.2-0.1,0.5-0.1,0.7v15.9c0,1.6,1.3,3,3,3H50v-0.1L30.6,0.1z"/>
	</g>
	<path class="st2" d="M0,34.1c0,1.6,1.3,3,3,3h34.3c1.6,0,3-1.3,3-3v-9.2c0-1.6-1.3-3-3-3H3c-1.6,0-3,1.3-3,3V34.1z"/>
	<g>
		<path class="st3" d="M10.7,34.6l-0.8-1.8c-0.3-0.7-0.5-1.2-0.8-1.8h0c-0.2,0.6-0.4,1.1-0.7,1.8l-0.7,1.8H5.4l2.6-5.1l-2.5-5h2.3
			l0.8,1.8C8.8,27,9,27.5,9.2,28h0c0.2-0.6,0.4-1.1,0.6-1.7l0.8-1.8h2.3l-2.5,4.9l2.6,5.1H10.7z"/>
		<path class="st3" d="M14.1,24.5h2v8.1h3.5v1.9h-5.6V24.5z"/>
		<path class="st3" d="M20.9,32.2c0.5,0.3,1.4,0.6,2.2,0.6c0.9,0,1.4-0.4,1.4-1.1c0-0.6-0.4-1-1.5-1.4c-1.5-0.6-2.5-1.5-2.5-3
			c0-1.7,1.3-3,3.4-3c1,0,1.7,0.2,2.3,0.5l-0.4,1.8c-0.3-0.2-1-0.5-1.9-0.5c-0.9,0-1.3,0.5-1.3,1c0,0.6,0.5,0.9,1.7,1.4
			c1.6,0.7,2.3,1.6,2.3,3c0,1.7-1.1,3.1-3.6,3.1c-1,0-2-0.3-2.5-0.6L20.9,32.2z"/>
		<path class="st3" d="M32.7,34.6l-0.8-1.8c-0.3-0.7-0.5-1.2-0.8-1.8h0c-0.2,0.6-0.4,1.1-0.7,1.8l-0.7,1.8h-2.3l2.6-5.1l-2.5-5h2.3
			l0.8,1.8c0.3,0.6,0.5,1.1,0.7,1.7h0c0.2-0.6,0.4-1.1,0.6-1.7l0.8-1.8h2.3l-2.5,4.9l2.6,5.1H32.7z"/>
	</g>
</g>
</svg>
